<svg version="1.1" xmlns="http://www.w3.org/2000/svg" xmlns:xlink="http://www.w3.org/1999/xlink" x="0px" y="0px"
	 viewBox="0 0 640 1440" style="enable-background:new 0 0 640 1440;" xml:space="preserve">
<g>
	<path d="M415.99,1440c-24,0-48,0-72,0c0-5.27,0-10.54,0-16.12c-2.97,0-5.25,0-7.71,0c0-5.41,0-10.47,0-15.68
		c2.68-0.16,5.08-0.31,7.47-0.45c0-13.4,0-26.33,0-39.56c-2.61-0.14-5.02-0.26-7.42-0.39c0-8.12,0-15.85,0-23.91
		c2.62,0,4.89,0,7.69,0c0-16.07,0-31.8,0-47.69c2.92-0.17,5.33-0.31,7.57-0.44c0-2.85,0-5.24,0-7.61c-2.67-0.13-4.95-0.24-7.73-0.38
		c0-24.06,0-47.8,0-71.86c-2.8,0-5.08,0-7.61,0c0-24.07,0-47.8,0-71.69c2.65-0.19,5.05-0.36,7.95-0.56c0-13.4,0-26.47,0-39.86
		c2.81,0,5.09,0,7.47,0c0-5.41,0-10.47,0-15.63c-2.71-0.16-5.11-0.3-7.83-0.47c0-8.1,0-15.71,0-23.47c-2.75-0.2-5.15-0.37-8.05-0.58
		c0-16.05,0-31.79,0-47.85c-2.81,0-5.09,0-7.49,0c0-10.74,0-21.14,0-31.65c2.7-0.16,5.1-0.3,7.45-0.44c0-34.77,0-69.04,0-103.54
		c-2.62-0.16-5.02-0.3-7.92-0.48c0-16.07,0-31.8,0-47.51c-2.81,0-5.08,0-7.89,0c0,10.62,0,21.03,0,31.56
		c-2.92,0.18-5.32,0.32-8.2,0.5c0,64.14,0,127.86,0,191.58c-2.8,0.13-5.08,0.23-7.86,0.36c0,8.07,0,15.81,0,23.87
		c-2.81,0-5.08,0-7.61,0c0,10.74,0,21.13,0,31.69c2.65,0.18,5.05,0.35,7.95,0.55c0,10.74,0,21.14,0,31.54
		c2.82,0.12,5.09,0.23,7.46,0.33c0,21.41,0,42.47,0,63.63c-2.71,0.16-5.1,0.3-7.83,0.47c0,24.1,0,47.7,0,71.47
		c-2.74,0.19-5.15,0.36-7.5,0.53c0,8.09,0,15.82,0,23.89c2.64,0,4.92,0,7.71,0c0,16.07,0,31.8,0,47.65
		c2.92,0.17,5.32,0.31,7.68,0.45c0,5.43,0,10.37,0,15.52c-2.63,0.17-5.03,0.33-7.75,0.5c0,24.14,0,47.94,0,71.74c-24,0-48,0-72,0
		c0-2.59,0-5.19,0-8.1c-2.97,0-5.24,0-7.71,0c0-8.09,0-15.82,0-23.71c2.68-0.15,5.09-0.29,7.81-0.45c0-2.71,0-4.99,0-7.54
		c2.73-0.15,5.14-0.28,7.7-0.42c0.16-2.74,0.3-5.15,0.46-7.87c2.69,0,4.97,0,7.77,0c0-5.41,0-10.49,0-15.69
		c2.92-0.18,5.32-0.33,7.56-0.48c0-18.83,0-37.21,0-55.59c-2.68-0.14-4.95-0.26-7.74-0.4c0-5.39,0-10.47,0-15.87
		c-2.81,0-5.09,0-7.89,0c0-10.74,0-21.14,0-31.68c-2.92-0.18-5.32-0.33-8.06-0.5c0-5.36,0-10.3,0-15.53
		c-2.74-0.14-5.15-0.26-8.06-0.4c0-13.43,0-26.5,0-39.9c-2.81,0-5.09,0-7.89,0c0-13.4,0-26.48,0-39.68
		c-2.92-0.18-5.32-0.33-7.72-0.47c0-16.06,0-31.66,0-47.56c2.61-0.14,5.01-0.26,7.92-0.42c0-13.42,0-26.49,0-39.89
		c2.81,0,5.09,0,7.55,0c0-29.41,0-58.47,0-87.69c-2.68-0.16-5.08-0.31-7.81-0.47c0-8.04,0-15.65,0-23.53
		c-2.75-0.14-5.15-0.27-8.06-0.42c0-8.09,0-15.84,0-23.9c-2.81,0-5.09,0-7.89,0c0-8.07,0-15.81,0-23.67
		c-2.92-0.18-5.32-0.32-8.06-0.48c0-13.39,0-26.33,0-39.51c-2.75-0.16-5.15-0.3-8.06-0.47c0-18.74,0-37.15,0-55.88
		c-2.81,0-5.09,0-7.54,0c0-42.74,0-85.14,0-127.69c2.68-0.16,5.08-0.3,7.82-0.47c0-21.39,0-42.33,0-63.51
		c2.75-0.16,5.15-0.31,8.06-0.48c0-29.41,0-58.48,0-87.88c2.81,0,5.09,0,7.53,0c0-10.74,0-21.14,0-31.51c-2.69,0-5.08,0-7.82,0
		c0,5.3,0,10.25,0,15.4c-2.75,0.17-5.15,0.32-8.06,0.5c0,13.4,0,26.47,0,39.87c-2.81,0-5.09,0-7.89,0c0,21.41,0,42.48,0,63.66
		c-2.92,0.17-5.32,0.32-8.06,0.48c0,5.4,0,10.35,0,15.49c-2.75,0.18-5.15,0.34-8.06,0.53c0,5.39,0,10.47,0,15.86
		c-2.82,0-5.1,0-7.56,0c-0.19,2.73-0.36,5.14-0.54,7.66c-2.71,0.16-5.11,0.3-7.84,0.46c0,5.4,0,10.35,0,15.47
		c-2.76,0.19-5.16,0.36-8.07,0.57c0,2.69,0,5.08,0,7.82c-2.8,0-5.07,0-7.87,0c0,8.08,0,15.82,0,23.67
		c-2.92,0.17-5.32,0.32-8.06,0.48c0,5.39,0,10.34,0,15.5c-2.75,0.17-5.16,0.32-7.53,0.46c0,5.44,0,10.51,0,15.9
		c2.63,0,4.91,0,7.35,0c0,10.74,0,21.14,0,31.67c-2.69,0.16-5.09,0.3-7.82,0.46c0,10.74,0,21.01,0,31.49
		c-2.75,0.18-5.15,0.34-8.06,0.53c0,13.39,0,26.47,0,39.87c-2.82,0-5.09,0-7.9,0c0,5.4,0,10.47,0,16.05c-5.61,0-10.68,0-16.08,0
		c0,2.82,0,5.09,0,7.89c-5.4,0-10.48,0-15.69,0c-0.13,2.93-0.23,5.34-0.34,7.67c-2.83,0-5.1,0-7.56,0
		c-0.19-2.64-0.36-5.04-0.56-7.95c-2.69,0-5.09,0-7.82,0c0-2.8,0-5.09,0-7.58c-2.73-0.17-5.13-0.32-8.05-0.5
		c0-24.06,0-47.79,0-71.49c-5.49,0-10.43,0-15.57,0c-0.18,2.63-0.34,5.03-0.5,7.37c-5.42,0-10.48,0-15.49,0c0-7.99,0-15.59,0-23.38
		c2.64-0.19,5.05-0.35,7.95-0.56c0-2.71,0-5.1,0-7.84c2.8,0,5.07,0,7.87,0c0-5.41,0-10.49,0-15.7c2.93-0.13,5.34-0.24,8.06-0.36
		c0-2.8,0-5.08,0-7.55c2.73-0.18,5.13-0.34,8.04-0.53c0-5.39,0-10.47,0-15.86c2.82,0,5.1,0,7.56,0c0.19-2.73,0.36-5.14,0.57-8.04
		c2.69,0,5.09,0,7.82,0c0-2.8,0-5.08,0-7.6c2.73-0.16,5.13-0.3,8.04-0.47c0-8.08,0-15.82,0-23.88c2.81,0,5.09,0,7.89,0
		c0-10.74,0-21.14,0-31.66c2.92-0.17,5.32-0.32,8.06-0.48c0-10.73,0-21.01,0-31.5c2.75-0.17,5.15-0.32,8.06-0.51
		c0-24.07,0-47.8,0-71.87c2.81,0,5.09,0,7.89,0c0-5.4,0-10.48,0-15.66c2.93-0.17,5.32-0.31,8.06-0.48c0-5.4,0-10.35,0-15.48
		c2.75-0.18,5.15-0.34,8.06-0.53c0-8.06,0-15.8,0-23.86c2.81,0,5.09,0,7.89,0c0-32.07,0-63.81,0-95.66
		c2.92-0.17,5.32-0.31,7.68-0.45c0-10.77,0-21.04,0-31.51c-2.63-0.18-5.03-0.34-7.39-0.51c0-16.1,0-31.83,0-47.9
		c2.64,0,4.92,0,7.72,0c0-10.74,0-21.15,0-31.65c2.93-0.17,5.33-0.31,8.06-0.48c0-5.42,0-10.37,0-15.47
		c2.76-0.2,5.17-0.37,8.07-0.57c0-2.7,0-5.1,0-7.83c2.8,0,5.08,0,7.56,0c0.18-2.73,0.33-5.14,0.52-8.04c5.4,0,10.47,0,15.86,0
		c0-2.81,0-5.09,0-7.89c10.74,0,21.14,0,31.65,0c0.17-2.93,0.31-5.33,0.48-8.06c5.41,0,10.36,0,15.47,0
		c0.19-2.75,0.36-5.15,0.56-8.06c5.39,0,10.46,0,15.85,0c0-2.81,0-5.09,0-7.89c5.4,0,10.48,0,15.69,0c0.13-2.93,0.24-5.34,0.36-8.06
		c2.8,0,5.08,0,7.53,0c0.19-2.74,0.37-5.15,0.57-8.05c2.69,0,5.09,0,7.82,0c0-2.8,0-5.08,0-7.56c2.74-0.19,5.15-0.35,7.73-0.53
		c0.12-2.71,0.22-5.12,0.34-7.84c2.78,0,5.06,0,7.51,0c0-2.75,0-5.14,0-7.7c-2.68-0.15-5.09-0.29-7.81-0.45c0-2.71,0-4.98,0-7.79
		c-13.4,0-26.47,0-40.06,0c0-8.27,0-16.01,0-24.07c-2.81,0-5.09,0-7.9,0c0-13.4,0-26.46,0-40.07c-5.6,0-10.66,0-15.69,0
		c0-5.49,0-10.43,0-15.56c2.63-0.19,5.04-0.36,7.94-0.57c0-2.69,0-5.09,0-7.82c2.8,0,5.07,0,7.87,0c0-5.41,0-10.49,0-15.67
		c2.92-0.17,5.32-0.32,8.06-0.48c0-16.07,0-31.68,0-47.49c2.75-0.18,5.15-0.33,8.06-0.52c0-5.4,0-10.47,0-15.86
		c2.82,0,5.11,0,7.59,0c0.17-2.72,0.32-5.13,0.51-8.03c5.4,0,10.47,0,15.87,0c0-2.81,0-5.09,0-7.52c32.07,0,63.8,0,95.67,0
		c0.16,2.69,0.3,5.09,0.46,7.83c5.4,0,10.34,0,15.8,0c0,5.43,0,10.51,0,15.67c2.93,0.17,5.33,0.31,8.06,0.48c0,5.42,0,10.37,0,15.47
		c2.75,0.2,5.15,0.37,7.5,0.53c0,21.42,0,42.49,0,63.89c-2.64,0-4.92,0-7.72,0c0,8.07,0,15.81,0,23.64
		c-2.93,0.17-5.33,0.32-8.06,0.48c0,8.09,0,15.7,0,23.47c-2.76,0.2-5.15,0.37-7.49,0.54c0,18.76,0,37.16,0,55.89
		c2.65,0,4.93,0,7.38,0c0.19,2.73,0.36,5.14,0.56,8.04c2.71,0,5.1,0,7.84,0c0,2.8,0,5.07,0,7.87c5.41,0,10.49,0,15.65,0
		c0.17,2.93,0.31,5.33,0.47,8.06c5.42,0,10.36,0,15.47,0c0.2,2.75,0.37,5.15,0.57,8.06c5.38,0,10.46,0,15.85,0c0,2.82,0,5.1,0,7.55
		c2.73,0.19,5.14,0.36,7.65,0.54c0.16,2.72,0.3,5.12,0.46,7.85c10.75,0,21.02,0,31.47,0c0.19,2.75,0.36,5.15,0.56,8.06
		c5.38,0,10.46,0,15.85,0c0,2.82,0,5.09,0,7.9c5.4,0,10.47,0,16.05,0c0,5.61,0,10.69,0,16.08c2.81,0,5.09,0,7.89,0
		c0,8.07,0,15.81,0,23.63c2.93,0.17,5.33,0.32,8.06,0.48c0,34.77,0,69.04,0,103.48c2.75,0.2,5.15,0.37,8.05,0.58
		c0,34.72,0,69.12,0,103.86c2.82,0,5.1,0,7.55,0c0.19,2.73,0.36,5.14,0.53,7.64c2.73,0.16,5.13,0.3,7.86,0.46c0,8.09,0,15.7,0,23.47
		c2.76,0.2,5.16,0.37,8.06,0.58c0,5.38,0,10.46,0,15.85c2.82,0,5.09,0,7.89,0c0,24.07,0,47.81,0,71.63
		c2.93,0.17,5.33,0.32,8.06,0.48c0,10.77,0,21.04,0,31.47c2.76,0.2,5.16,0.37,8.06,0.58c0,16.05,0,31.79,0,47.86
		c2.82,0,5.1,0,7.55,0c0.19,2.73,0.35,5.14,0.55,8.04c2.72,0,5.11,0,7.84,0c0,2.8,0,5.08,0,7.53c2.74,0.19,5.15,0.36,8.05,0.57
		c0,2.7,0,5.09,0,7.83c2.8,0,5.07,0,7.87,0c0,5.41,0,10.49,0,15.71c2.93,0.13,5.34,0.24,8.06,0.37c0,2.79,0,5.07,0,7.56
		c2.73,0.17,5.13,0.32,8.04,0.5c0,5.4,0,10.47,0,15.87c2.82,0,5.1,0,7.57,0c0.19,2.73,0.36,5.14,0.55,7.86c2.77,0,5.24,0,7.71,0
		c0,5.33,0,10.67,0,16c-5.27,0-10.54,0-16.12,0c0-2.97,0-5.25,0-7.7c-5.4,0-10.46,0-16.06,0c0,24.02,0,47.74,0,71.83
		c-5.48,0-10.42,0-15.9,0c0,5.42,0,10.48,0,15.52c-5.62,0-10.68,0-16.08,0c0-2.64,0-4.91,0-7.72c-5.4,0-10.48,0-15.64,0
		c-0.17-2.93-0.31-5.32-0.48-8.06c-5.41,0-10.35,0-15.81,0c0-10.77,0-21.17,0-31.66c-2.93-0.17-5.33-0.31-8.06-0.48
		c0-16.09,0-31.69,0-47.47c-2.75-0.19-5.15-0.36-8.05-0.56c0-24.05,0-47.78,0-71.85c-2.81,0-5.09,0-7.89,0c0-5.4,0-10.48,0-15.7
		c-2.93-0.13-5.34-0.24-8.06-0.37c0-2.79,0-5.07,0-7.56c-2.73-0.17-5.13-0.32-8.04-0.49c0-5.4,0-10.48,0-15.87
		c-2.81,0-5.09,0-7.89,0c0-5.4,0-10.48,0-15.7c-2.93-0.14-5.34-0.25-8.06-0.38c0-2.77,0-5.05,0-7.6c-2.73-0.14-5.13-0.26-8.04-0.41
		c0-8.1,0-15.84,0-23.91c-2.81,0-5.09,0-7.89,0c0-16.07,0-31.81,0-47.67c-2.92-0.18-5.32-0.32-8.05-0.49c0-16.04,0-31.65,0-47.53
		c-2.75-0.14-5.15-0.27-8.05-0.42c0-13.42,0-26.49,0-39.55c-2.81,0-5.08,0-7.56,0c0,29.29,0,58.35,0,87.57
		c2.67,0.17,5.07,0.32,7.98,0.5c0,16.12,0,31.84,0,47.54c2.82,0.14,5.09,0.26,7.87,0.4c0,26.73,0,53.13,0,79.87
		c2.81,0,5.08,0,7.59,0c0,32.07,0,63.8,0,95.69c-2.66,0.18-5.06,0.34-7.96,0.53c0,18.76,0,37.15,0,55.54
		c-2.82,0.13-5.09,0.23-7.88,0.36c0,16.07,0,31.8,0,47.87c-2.81,0-5.08,0-7.89,0c0,8.07,0,15.81,0,23.68
		c-2.92,0.2-5.32,0.37-8.22,0.57c0,10.74,0,21.14,0,31.54c-2.82,0.13-5.1,0.23-7.89,0.35c0,5.39,0,10.47,0,15.59
		c-2.93,0.18-5.33,0.33-7.63,0.47c0,34.8,0,69.07,0,103.51c2.65,0.19,5.05,0.36,7.94,0.57c0,16.06,0,31.79,0,47.86
		c2.81,0,5.09,0,7.48,0c0,8.08,0,15.81,0,23.63c-2.71,0.16-5.11,0.3-7.83,0.47c0,13.43,0,26.37,0,39.47
		c-2.75,0.2-5.15,0.37-8.05,0.58c0,10.72,0,21.13,0,31.85c-2.82,0-5.09,0-7.89,0c0,8.07,0,15.81,0,23.63
		c-2.93,0.17-5.32,0.32-8.05,0.48c0,10.76,0,21.04,0,31.47c-2.75,0.2-5.15,0.37-8.05,0.58c0,8.05,0,15.79,0,23.85
		c-2.82,0-5.1,0-7.49,0c0,21.41,0,42.47,0,63.65c2.7,0.16,5.1,0.3,7.83,0.46c0,5.42,0,10.37,0,15.47c2.76,0.19,5.16,0.36,8.07,0.57
		c0,2.7,0,5.1,0,7.83c2.8,0,5.09,0,7.54,0c0.19,2.74,0.36,5.14,0.54,7.67c2.71,0.16,5.11,0.3,7.48,0.44c0,5.42,0,10.36,0,15.5
		c-2.63,0.18-5.04,0.35-7.76,0.54C415.99,1435.06,415.99,1437.53,415.99,1440z M456.37,399.99c0,23.92,0,47.75,0,71.56
		c2.62,0,5,0,7.24,0c0-24.07,0-47.78,0-71.56C461.06,399.99,458.91,399.99,456.37,399.99z"/>
</g>
</svg>
