<svg version="1.1" xmlns="http://www.w3.org/2000/svg" xmlns:xlink="http://www.w3.org/1999/xlink" x="0px" y="0px"
	 viewBox="0 0 463.51 1070.32" style="enable-background:new 0 0 463.51 1070.32;" xml:space="preserve">
<path d="M460.3,545.43c-4.52-8.75-7.23-18.9-17.41-23.54c-1.47-0.67-2.64-2.01-3.88-3.11c-6.05-5.41-12.12-10.78-18.06-16.3
	c-1.51-1.39-3.31-3.09-3.74-4.93c-2.13-9.21-4.41-18.45-5.58-27.81c-2.8-22.29-4.76-44.68-7.52-66.97
	c-1.98-16.05-5.21-31.84-12.84-46.4c-1.42-2.72-2.42-5.89-2.69-8.94c-1.75-19.92-3.99-39.71-10.13-58.89
	c-1.5-4.68-2.73-9.86-2.31-14.66c1.27-14.8-1.02-29.15-3.27-43.66c-3.04-19.67-13.71-32.95-31.9-40.03
	c-4.81-1.87-9.71-3.56-14.65-5.12c-5.51-1.74-11.07-3.33-16.64-4.83c-13.55-3.65-27.01-7.28-38.95-15.03
	c-4.53-2.95-7.06-6.52-6.58-12.36c0.53-6.46,0.68-13.05-0.03-19.47c-0.8-7.23,4.55-12.31,5.55-18.86c0.19-1.24,3.56-1.92,5.36-3.04
	c0.81-0.5,1.6-1.31,2.01-2.17c2.95-6.31,6.31-12.51,8.54-19.07c2.27-6.66,0.62-9.71-5.29-13.37c1.02-1.88,2.13-3.73,3.05-5.68
	c2.94-6.23,3.19-29.48-0.02-35.6c-2.93-5.58-6.14-11.07-9.81-16.17c-6.53-9.08-15.56-13.79-26.88-13.85
	c-2.14-0.01-4.55,0.32-6.37-0.51c-9.28-4.28-17.87-1.75-26.4,2.14c-2.03,0.93-3.99,1.99-6.69,3.35c0.46-1.92,0.68-2.83,0.89-3.73
	c-0.41-0.28-0.83-0.56-1.25-0.84c-2.32,2.64-4.59,5.32-6.96,7.92c-1.46,1.59-2.79,3.63-4.64,4.47c-7.25,3.33-12.54,8.51-14.58,16.15
	c-3.79,14.26-3.86,28.5,1.6,42.61c-5.55,3.33-7.1,6.33-4.95,12.93c1.94,5.96,4.53,11.77,7.44,17.34c1.41,2.7,4.19,4.68,6.35,6.98
	c0.54-0.22,1.08-0.45,1.62-0.68c0.98,9.78,2.04,19.55,2.9,29.33c0.28,3.15-0.33,6.39,0.12,9.49c1.04,7.09-2.28,11.96-8.19,14.44
	c-11.45,4.82-23,9.69-34.94,13c-8.65,2.4-17.29,4.73-25.53,7.97c-0.01,0.01-0.02,0.01-0.03,0.02c-6.18,2.43-12.14,5.38-17.74,9.25
	c-8.35,5.76-14.2,13.19-16.88,23.29c-4.52,17.04-6.59,34.24-5.85,51.86c0.2,4.75,0.06,9.83-1.37,14.29
	c-6.04,18.85-8.7,38.22-10.38,57.82c-0.36,4.23-1.69,8.45-3.13,12.47c-2.07,5.78-5.28,11.2-6.89,17.07
	c-6.78,24.64-8.65,50.07-11.53,75.34c-1.73,15.19-4.15,30.31-6.62,45.4c-0.44,2.69-2.06,5.74-4.1,7.54
	c-9.42,8.33-19.28,16.17-28.75,24.45c-2.3,2.02-3.94,4.91-5.52,7.62c-1.83,3.16-3.43,6.49-4.79,9.88c-0.58,1.45-0.97,4.02-0.21,4.72
	c1.24,1.14,3.86,2.03,5.26,1.46c3-1.22,5.58-3.44,8.33-5.26c1.5-1,2.99-2.04,5.39-3.68c-0.39,7.13-0.86,12.93-0.98,18.73
	c-0.26,11.77-0.63,23.55-0.31,35.32c0.12,4.76,2.2,9.23,8.39,8.96c0.31,1.77,0.5,3.25,0.83,4.7c1.43,6.32,5.41,7.74,10.38,3.76
	c0.7-0.56,1.83-1.47,2.34-1.25c4.42,1.89,5.85-1.58,7.08-4.26c1.58-3.44,2.46-7.22,3.48-10.89c1.15-4.17,2.12-8.38,3.26-12.91
	c1,6,1.75,11.41,2.9,16.73c0.25,1.12,1.94,2.67,2.98,2.68c1.01,0.02,2.49-1.51,2.97-2.68c1.06-2.6,1.74-5.37,2.36-8.12
	c2.48-11.19,4.64-22.46,7.38-33.59c3.23-13.09,5.01-26.1,1.32-39.42c-0.54-1.96-0.14-4.32,0.31-6.39
	c4.29-19.93,12.72-38.13,23.71-55.16c13.94-21.6,21.05-45.41,23.83-70.77c1.42-13.02,3.05-26.04,5.29-38.93
	c1.16-6.65,3.88-13.03,6.18-20.43c1.28,1.63,1.66,1.97,1.86,2.39c9.89,19.83,15.84,40.69,14.79,63
	c-0.59,12.44-2.48,24.81-3.58,37.23c-0.75,8.42-0.48,16.97-1.89,25.26c-1.54,8.98-4.97,17.63-6.75,26.59
	c-2.14,10.74-4.73,21.47-6.91,32.23c-2.13,10.46-3.88,20.93-4.46,31.47c-2.1,38.04-1.78,76.26-1.22,114.39
	c0.22,15.34,3.96,30.6,5.67,45.94c0.69,6.18,0.61,12.51,0.23,18.72c-0.74,12.09-1.99,24.14-2.95,36.21
	c-0.66,8.4-0.32,16.98-1.9,25.2c-5.84,30.52-5.74,60.97,0.85,91.23c4.27,19.61,10.14,38.88,14.8,58.41
	c2.83,11.86,3.59,23.87,1.74,36.18c-1.08,7.24,0.2,14.83,0.39,22.26c0.03,1.14,0.21,2.33-0.06,3.4c-2.43,9.57-5.6,18.72-11.9,26.67
	c-10.68,13.49-7.63,27.47,7.26,35.01c3.03,1.53,6.31,2.58,9.29,4.2c3.82,2.06,7.43,2.9,11.19-0.77c1.25,1.81,2.26,3.26,3.26,4.71h10
	c0.37-0.83,0.56-1.82,1.14-2.45c8.88-9.46,14.04-19.77,10.49-33.43c-1.27-4.86-0.11-10.52,0.68-15.71
	c2.3-15.14,3.18-30.14,0.17-45.39c-4.59-23.19-6.53-46.6,0.48-69.69c5.78-19.02,8.16-38.47,7.56-58.16
	c-0.31-10.55-2.18-21.18-4.49-31.51c-2.87-12.83-2.96-25.07,0.9-37.86c3.44-11.36,4.76-23.37,7.05-35.08
	c0.73-3.73,1.08-7.61,2.41-11.12c4.6-12.17,5.99-24.83,6.69-37.66c1.51-27.62,3.75-55.01,12.28-81.72
	c3.52-11.02,3.37-23.25,4.57-34.97c0.47-4.61,0.08-9.3,0.08-14.42h10.38c1.5,14.95,2.32,29.56,4.6,43.94
	c1.7,10.78,6.28,21.11,7.81,31.89c2.77,19.58,4.69,39.3,6.06,59.03c0.86,12.25,3.37,23.9,7.02,35.56
	c2.15,6.87,1.81,14.48,3.34,21.59c2.2,10.22,5.31,20.25,7.62,30.45c2.21,9.74,1.78,19.59-1.07,29.14
	c-5.64,18.92-5.76,38.25-3.27,57.44c2.18,16.74,7.37,33.11,9.3,49.86c1.47,12.75,0.34,25.87-0.45,38.77
	c-0.48,7.73-2.53,15.36-3.87,23.04c-0.17,0.98-0.49,1.99-0.42,2.96c0.98,12.03,2.11,24.04,2.99,36.08
	c0.33,4.58,1.13,9.46-0.01,13.75c-3.46,13.01,1.65,23.01,9.69,32.36c0.86,1.01,1.52,2.2,2.27,3.31h10c0.91-1.56,1.83-3.13,2.74-4.69
	c0.23,0.5,0.45,1,0.67,1.5c2.94,0,6.08,0.66,8.77-0.15c4.96-1.49,10.16-3.12,14.31-6.05c3.96-2.79,8.51-6.85,9.59-11.16
	c1.92-7.63,0.28-15.75-4.99-22.19c-6.19-7.57-9.35-16.41-11.89-25.58c-0.47-1.71-0.41-3.62-0.32-5.42
	c0.28-5.29,1.13-10.59,0.97-15.86c-0.24-7.95-2.37-16.02-1.48-23.78c1.56-13.65,4.3-27.22,7.46-40.61
	c5.5-23.26,14.04-45.81,14.61-70.16c0.4-16.86,0.13-33.57-2.59-50.27c-1.7-10.46-2.96-21.08-3.25-31.66
	c-0.36-12.83-0.22-25.57-3.19-38.22c-1.17-5-0.64-10.59,0.03-15.8c1.78-13.83,5.45-27.56,5.86-41.41
	c0.94-31.62,0.3-63.28,0.45-94.93c0.12-23.16-3.05-45.84-7.83-68.3c-0.01-0.02-0.01-0.04-0.01-0.06c-1.38-6.48-2.89-12.93-4.5-19.38
	c-4.42-17.67-10.44-35.05-8.88-53.78c0.39-4.72-0.74-9.61-1.48-14.38c-2.12-13.53-3.56-27.04-1.51-40.75
	c2.43-16.23,7.15-31.65,15.09-46.66c0.83,1.47,1.65,2.39,1.9,3.44c3.21,13.73,8.15,27.34,9.14,41.23
	c2.25,31.47,9.01,61.02,26.66,87.73c10.24,15.49,17.6,32.49,21.76,50.71c0.62,2.69,1.31,5.76,0.61,8.28
	c-2.93,10.58-2.6,21.12-0.38,31.66c2.55,12.16,5.47,24.25,8.25,36.37c1,4.36,1.92,8.74,3.22,13.01c0.35,1.14,2,2.66,3,2.63
	c1.08-0.03,2.68-1.53,3.03-2.69c0.89-3,1.3-6.15,1.73-9.27c0.28-2.07,0.26-4.19,0.38-6.29c2.82,6.85,4.29,13.68,6.44,20.3
	c1.22,3.75,2.52,8.47,8.56,6.5c0.42-0.14,1.22,0.78,1.8,1.26c4.62,3.88,8.68,2.75,10.47-3.02c0.53-1.7,0.66-3.53,1-5.47
	c5.05,0.52,7.46-2.73,7.71-6.75c0.6-9.92,0.76-19.89,0.59-29.82c-0.14-8.5-0.98-16.99-1.6-26.89c2.78,2.15,4.25,3.43,5.85,4.51
	c2.73,1.85,5.35,4.1,8.37,5.22C458.35,551.72,461.85,548.43,460.3,545.43z"/>
</svg>
