<svg version="1.1" xmlns="http://www.w3.org/2000/svg" xmlns:xlink="http://www.w3.org/1999/xlink" x="0px" y="0px"
	 viewBox="0 0 256 256" style="enable-background:new 0 0 256 256;" xml:space="preserve">
<polygon class="bodypart" data-name="nose" points="147.42,137.42 147.42,109.33 125.05,109.33 125.05,137.42 115.89,137.42 115.89,173.16 155.72,173.16 
	155.72,137.42 "/>
<polygon class="bodypart" data-name="right eye" points="121.7,116.99 114.87,116.99 112.06,116.99 98.19,116.99 98.19,120.56 88.49,120.56 88.49,135.2 98.19,135.2 
	114.87,135.2 114.87,129.48 121.7,129.48 "/>
<polygon class="bodypart" data-name="left eye" points="166.77,123.24 166.77,117.27 150.79,117.27 150.79,134.03 161.31,134.03 166.77,134.03 179.5,134.03 179.5,123.24 
	"/>
<polygon class="bodypart" data-name="mouth" points="102.32,185.39 102.32,196.19 109.05,196.19 109.05,209.23 163.27,209.23 163.27,196.19 169.18,196.19 
	169.18,185.39 "/>
<polygon class="bodypart" data-name="left ear" points="200.88,124.55 200.88,148.76 196.94,148.76 196.94,184.21 218.25,184.21 218.25,148.76 225.09,148.76 
	225.09,124.55 "/>
<polygon class="bodypart" data-name="right ear" points="71.58,153.16 71.58,125.65 50.73,125.65 50.73,153.16 53.28,153.16 53.28,185.39 73.9,185.39 73.9,153.16 "/>
<polygon class="bodypart" data-name="hairs" points="225.48,31.05 209.06,31.05 209.06,13.61 192.44,13.61 192.44,0.27 91.66,0.27 91.66,6.84 84.5,6.84 84.5,13.61 
	63.59,13.61 63.59,23.31 56.36,23.31 56.36,59.17 50.41,59.17 50.41,120.56 73.9,120.56 73.9,96.94 88.79,96.94 88.79,64.92 
	94.54,64.92 94.54,56.71 150.79,56.71 150.79,77.23 188.74,77.23 188.74,123.24 209.06,123.24 209.06,109.05 225.48,109.05 "/>
</svg>
